<svg width="249" height="164" viewBox="0 0 249 164" fill="none" xmlns="http://www.w3.org/2000/svg">
<path fill-rule="evenodd" clip-rule="evenodd" d="M150.055 143.411C157.681 150.009 167.624 154 178.5 154C199.263 154 216.628 139.454 220.96 119.996C236.488 119.75 249 107.086 249 91.5C249 77.97 239.572 66.6421 226.927 63.7277C226.975 62.9914 227 62.2485 227 61.5C227 42.9985 212.002 28 193.5 28C188 28 182.809 29.3256 178.23 31.6747C171.02 17.6185 156.383 8 139.5 8C128.411 8 118.291 12.1494 110.608 18.9802C105.188 15.2102 98.6023 13 91.5 13C74.6842 13 60.7623 25.3898 58.3649 41.5386C56.1287 41.1841 53.8359 41 51.5 41C27.4756 41 8 60.4756 8 84.5C8 108.519 27.4667 127.991 51.4835 128C60.2995 149.141 81.1645 164 105.5 164C123.345 164 139.324 156.01 150.055 143.411Z" fill="black"/>
<mask id="path-2-inside-1" fill="white">
<path fill-rule="evenodd" clip-rule="evenodd" d="M142.055 135.411C149.681 142.009 159.624 146 170.5 146C191.263 146 208.628 131.454 212.96 111.996C228.488 111.75 241 99.0864 241 83.5C241 69.97 231.572 58.6421 218.927 55.7277C218.975 54.9914 219 54.2485 219 53.5C219 34.9985 204.002 20 185.5 20C180 20 174.809 21.3256 170.23 23.6747C163.02 9.61847 148.383 0 131.5 0C120.411 0 110.291 4.14939 102.608 10.9802C97.1883 7.21016 90.6023 5 83.5 5C66.6842 5 52.7623 17.3898 50.3649 33.5386C48.1287 33.1841 45.8359 33 43.5 33C19.4756 33 0 52.4756 0 76.5C0 100.519 19.4667 119.991 43.4835 120C52.2995 141.141 73.1645 156 97.5 156C115.345 156 131.324 148.01 142.055 135.411Z"/>
</mask>
<path fill-rule="evenodd" clip-rule="evenodd" d="M142.055 135.411C149.681 142.009 159.624 146 170.5 146C191.263 146 208.628 131.454 212.96 111.996C228.488 111.75 241 99.0864 241 83.5C241 69.97 231.572 58.6421 218.927 55.7277C218.975 54.9914 219 54.2485 219 53.5C219 34.9985 204.002 20 185.5 20C180 20 174.809 21.3256 170.23 23.6747C163.02 9.61847 148.383 0 131.5 0C120.411 0 110.291 4.14939 102.608 10.9802C97.1883 7.21016 90.6023 5 83.5 5C66.6842 5 52.7623 17.3898 50.3649 33.5386C48.1287 33.1841 45.8359 33 43.5 33C19.4756 33 0 52.4756 0 76.5C0 100.519 19.4667 119.991 43.4835 120C52.2995 141.141 73.1645 156 97.5 156C115.345 156 131.324 148.01 142.055 135.411Z" fill="white"/>
<path d="M142.055 135.411L144.017 133.143L141.731 131.165L139.771 133.466L142.055 135.411ZM212.96 111.996L212.913 108.997L210.546 109.034L210.032 111.344L212.96 111.996ZM218.927 55.7277L215.934 55.5311L215.766 58.0778L218.253 58.651L218.927 55.7277ZM170.23 23.6747L167.561 25.0438L168.93 27.7134L171.599 26.3439L170.23 23.6747ZM102.608 10.9802L100.895 13.443L102.835 14.7926L104.601 13.2222L102.608 10.9802ZM50.3649 33.5386L49.8951 36.5016L52.8874 36.976L53.3323 33.9792L50.3649 33.5386ZM43.4835 120L46.2524 118.845L45.4831 117.001L43.4846 117L43.4835 120ZM140.092 137.68C148.243 144.731 158.877 149 170.5 149V143C160.372 143 151.119 139.286 144.017 133.143L140.092 137.68ZM170.5 149C192.698 149 211.257 133.448 215.889 112.648L210.032 111.344C205.998 129.459 189.827 143 170.5 143V149ZM213.008 114.996C230.171 114.724 244 100.727 244 83.5H238C238 97.4454 226.805 108.777 212.913 108.997L213.008 114.996ZM244 83.5C244 68.542 233.577 56.0256 219.601 52.8043L218.253 58.651C229.567 61.2586 238 71.3981 238 83.5H244ZM221.921 55.9242C221.973 55.1225 222 54.3142 222 53.5H216C216 54.1829 215.978 54.8602 215.934 55.5311L221.921 55.9242ZM222 53.5C222 33.3416 205.658 17 185.5 17V23C202.345 23 216 36.6553 216 53.5H222ZM185.5 17C179.512 17 173.853 18.444 168.861 21.0055L171.599 26.3439C175.764 24.2071 180.487 23 185.5 23V17ZM172.899 22.3056C165.196 7.28738 149.552 -3 131.5 -3V3C147.215 3 160.844 11.9496 167.561 25.0438L172.899 22.3056ZM131.5 -3C119.648 -3 108.825 1.43799 100.615 8.73822L104.601 13.2222C111.756 6.86078 121.174 3 131.5 3V-3ZM104.321 8.51749C98.4149 4.40896 91.2343 2 83.5 2V8C89.9702 8 95.9617 10.0114 100.895 13.443L104.321 8.51749ZM83.5 2C65.1757 2 50.0099 15.5004 47.3974 33.0981L53.3323 33.9792C55.5146 19.2792 68.1928 8 83.5 8V2ZM50.8346 30.5756C48.4437 30.1966 45.9937 30 43.5 30V36C45.678 36 47.8138 36.1716 49.8951 36.5016L50.8346 30.5756ZM43.5 30C17.8188 30 -3 50.8188 -3 76.5H3C3 54.1325 21.1325 36 43.5 36V30ZM-3 76.5C-3 102.175 17.8092 122.99 43.4824 123L43.4846 117C21.1242 116.992 3 98.8624 3 76.5H-3ZM97.5 153C74.4171 153 54.6187 138.908 46.2524 118.845L40.7146 121.155C49.9803 143.374 71.9118 159 97.5 159V153ZM139.771 133.466C129.586 145.424 114.429 153 97.5 153V159C116.261 159 133.063 150.596 144.338 137.357L139.771 133.466Z" fill="black" mask="url(#path-2-inside-1)"/>
<path d="M60.2635 94.5801C59.8485 92.9074 59.8778 91.4268 60.3514 90.1382C60.8162 88.8139 61.5792 87.3213 62.6404 85.6602C63.3182 84.5853 63.7866 83.7324 64.0456 83.1015C64.3402 82.4617 64.4125 81.8393 64.2624 81.2343C64.0681 80.4514 63.5799 79.9303 62.7978 79.671C62.0068 79.3761 61.0953 79.3567 60.0633 79.6128C58.9245 79.8954 57.9407 80.4983 57.1121 81.4217C56.2745 82.3096 55.7079 83.3757 55.4123 84.6202L44.7316 82.2268C45.484 79.169 47.0583 76.5306 49.4545 74.3116C51.8862 72.0837 55.1484 70.4621 59.2409 69.4467C63.5826 68.3694 67.3266 68.385 70.4727 69.4933C73.6189 70.6016 75.5937 72.775 76.3972 76.0134C76.7681 77.5081 76.8279 78.8911 76.5766 80.1623C76.3521 81.3892 75.9811 82.4824 75.4636 83.4419C74.9373 84.3658 74.2373 85.4273 73.3637 86.6263C72.4721 87.9053 71.8522 88.9091 71.5041 89.6377C71.156 90.3663 71.0747 91.1043 71.2601 91.8516L60.2635 94.5801ZM69.4439 108.056C67.3798 108.568 65.5348 108.365 63.909 107.446C62.2833 106.527 61.2496 105.178 60.8081 103.398C60.3578 101.583 60.6453 99.9254 61.6707 98.4243C62.6872 96.8876 64.2275 95.8632 66.2916 95.3511C68.3557 94.839 70.1962 95.0245 71.8132 95.9078C73.4213 96.7555 74.4505 98.0868 74.9008 99.9018C75.3423 101.681 75.0592 103.357 74.0515 104.929C73.0438 106.502 71.5079 107.544 69.4439 108.056Z" fill="black"/>
<path d="M156.942 90.1789C157.455 88.2405 158.315 86.7469 159.52 85.698C160.736 84.6078 162.35 83.5129 164.363 82.4133C165.657 81.6968 166.612 81.0894 167.23 80.591C167.889 80.1036 168.311 79.5093 168.497 78.8082C168.737 77.9008 168.531 77.0959 167.879 76.3932C167.238 75.6494 166.319 75.1189 165.123 74.8019C163.803 74.452 162.462 74.5158 161.099 74.9933C159.748 75.4296 158.573 76.1995 157.574 77.3031L148.022 68.8782C150.502 66.1811 153.586 64.3722 157.273 63.4516C161.001 62.5418 165.237 62.7156 169.98 63.9728C175.011 65.3066 178.821 67.42 181.409 70.313C183.996 73.206 184.793 76.529 183.798 80.282C183.339 82.0142 182.625 83.4582 181.657 84.6139C180.74 85.7394 179.749 86.6465 178.684 87.3351C177.63 87.9826 176.321 88.673 174.758 89.4064C173.132 90.2113 171.938 90.8878 171.175 91.4359C170.411 91.9839 169.915 92.691 169.685 93.5571L156.942 90.1789ZM158.755 109.066C156.363 108.432 154.595 107.191 153.452 105.343C152.308 103.495 152.01 101.54 152.557 99.4778C153.114 97.3744 154.336 95.8445 156.223 94.888C158.121 93.8903 160.265 93.7084 162.658 94.3425C165.05 94.9766 166.823 96.197 167.977 98.0038C169.142 99.7693 169.446 101.704 168.888 103.807C168.342 105.869 167.114 107.42 165.206 108.459C163.297 109.498 161.147 109.7 158.755 109.066Z" fill="black"/>
<path d="M102.216 67.416C102.216 64.6587 102.832 62.3707 104.064 60.552C105.296 58.6747 107.056 56.6507 109.344 54.48C110.811 53.072 111.867 51.928 112.512 51.048C113.216 50.168 113.568 49.2293 113.568 48.232C113.568 46.9413 113.011 45.944 111.896 45.24C110.781 44.4773 109.373 44.096 107.672 44.096C105.795 44.096 104.035 44.6533 102.392 45.768C100.749 46.824 99.4587 48.2613 98.52 50.08L82.856 42.248C85.2027 37.7893 88.664 34.2987 93.24 31.776C97.8747 29.2533 103.565 27.992 110.312 27.992C117.469 27.992 123.277 29.4587 127.736 32.392C132.195 35.3253 134.424 39.4613 134.424 44.8C134.424 47.264 133.984 49.4347 133.104 51.312C132.283 53.1307 131.285 54.6853 130.112 55.976C128.939 57.208 127.443 58.5867 125.624 60.112C123.747 61.7547 122.397 63.0747 121.576 64.072C120.755 65.0693 120.344 66.184 120.344 67.416H102.216ZM111.28 91.88C107.877 91.88 105.091 90.8533 102.92 88.8C100.749 86.7467 99.664 84.2533 99.664 81.32C99.664 78.328 100.749 75.864 102.92 73.928C105.091 71.9333 107.877 70.936 111.28 70.936C114.683 70.936 117.469 71.9333 119.64 73.928C121.811 75.864 122.896 78.328 122.896 81.32C122.896 84.2533 121.811 86.7467 119.64 88.8C117.469 90.8533 114.683 91.88 111.28 91.88Z" fill="black"/>
<path d="M65.2929 98.8209L65.5338 99.7914L66.5043 99.5506L77.5009 96.8222L78.4715 96.5814L78.2307 95.6108C78.104 95.1002 78.153 94.5992 78.4064 94.0688C78.7178 93.4171 79.298 92.4698 80.1781 91.2066C81.063 89.9917 81.7834 88.9008 82.3325 87.9369L82.3383 87.9268L82.3438 87.9166C82.9165 86.8545 83.3181 85.6619 83.559 84.3494C83.8419 82.9116 83.7667 81.3806 83.3678 79.7726C82.4832 76.2077 80.2686 73.7702 76.805 72.5501C73.4215 71.3582 69.4683 71.3675 65.0001 72.4761C60.7895 73.5208 57.3635 75.2064 54.779 77.5742L54.7789 77.5742L54.775 77.5778C52.241 79.9245 50.5615 82.7328 49.7606 85.9879L49.5166 86.9794L50.5129 87.2026L61.1936 89.596L62.157 89.8119L62.3852 88.8514C62.6424 87.7689 63.1281 86.862 63.8395 86.1079L63.848 86.0989L63.8563 86.0897C64.5594 85.3062 65.3711 84.8149 66.3041 84.5834C67.1914 84.3632 67.8901 84.3999 68.4485 84.608L68.4657 84.6144L68.4831 84.6202C68.9481 84.7744 69.1823 85.0338 69.2918 85.4751C69.3801 85.8313 69.3499 86.2214 69.1373 86.6832L69.1285 86.7023L69.1205 86.7217C68.8949 87.2714 68.4636 88.0656 67.796 89.1245C66.7112 90.8229 65.9084 92.3832 65.4102 93.8002C64.8544 95.3176 64.8428 97.0066 65.2929 98.8209ZM69.417 112.316C71.2965 113.379 73.4096 113.591 75.6847 113.026C77.9597 112.462 79.7285 111.287 80.8934 109.469C82.0463 107.67 82.3805 105.713 81.8714 103.661C81.3553 101.581 80.1507 100.012 78.2861 99.0267C76.417 98.0079 74.3154 97.8187 72.0508 98.3805C69.7862 98.9424 68.0168 100.092 66.8408 101.866C65.6528 103.609 65.3214 105.559 65.8376 107.639C66.3466 109.691 67.557 111.265 69.417 112.316Z" fill="#FFCC00" stroke="black" stroke-width="2"/>
<path d="M161.975 93.9227L161.719 94.8893L162.685 95.1455L175.429 98.5237L176.396 98.7799L176.652 97.8133C176.819 97.183 177.173 96.6681 177.758 96.2481C178.452 95.7498 179.585 95.1037 181.193 94.3071C182.773 93.5652 184.114 92.8588 185.207 92.1873L185.217 92.1812L185.227 92.1749C186.39 91.423 187.456 90.4436 188.428 89.2509C189.504 87.9644 190.276 86.3833 190.765 84.5383C191.846 80.4601 190.966 76.7902 188.154 73.6463C185.399 70.5658 181.393 68.3734 176.236 67.0062C171.376 65.7178 166.966 65.5212 163.036 66.4801L163.036 66.4801L163.031 66.4814C159.162 67.4475 155.904 69.3547 153.286 72.2013L152.594 72.9528L153.36 73.6282L162.912 82.0531L163.653 82.7061L164.315 81.9741C165.202 80.994 166.23 80.3247 167.407 79.945L167.418 79.9412L167.43 79.9371C168.615 79.5218 169.752 79.473 170.867 79.7685C171.918 80.0473 172.642 80.4904 173.122 81.0463L173.134 81.0602L173.146 81.0737C173.571 81.5314 173.681 81.9848 173.53 82.5519C173.41 83.0052 173.136 83.4162 172.635 83.7871L172.618 83.7996L172.602 83.8128C172.053 84.2559 171.158 84.8297 169.881 85.5371C167.83 86.658 166.148 87.7931 164.858 88.9486C163.47 90.1584 162.526 91.8433 161.975 93.9227ZM158.601 109.869C159.898 111.965 161.896 113.343 164.498 114.033C167.101 114.722 169.519 114.515 171.684 113.337C173.829 112.169 175.237 110.397 175.855 108.063C176.483 105.696 176.14 103.469 174.816 101.459C173.506 99.4123 171.505 98.0629 168.914 97.3759C166.322 96.6889 163.916 96.8702 161.764 97.9994C159.619 99.0892 158.217 100.854 157.59 103.222C156.971 105.555 157.316 107.792 158.601 109.869Z" fill="#FFCC00" stroke="black" stroke-width="2"/>
<path d="M107.216 71.416V72.416H108.216H126.344H127.344V71.416C127.344 70.4279 127.666 69.5354 128.348 68.7077C129.115 67.7762 130.412 66.5015 132.275 64.8715C134.108 63.3334 135.631 61.931 136.836 60.6657L136.844 60.6573L136.852 60.6487C138.104 59.2718 139.155 57.628 140.012 55.7302C140.963 53.6988 141.424 51.3807 141.424 48.8C141.424 43.1249 139.026 38.6749 134.286 35.5566C129.617 32.485 123.6 30.992 116.312 30.992C109.444 30.992 103.579 32.276 98.7619 34.8977L98.7619 34.8977L98.7572 34.9003C94.0167 37.5136 90.4123 41.1439 87.9711 45.7823L87.4955 46.6858L88.4088 47.1424L104.073 54.9744L104.956 55.4159L105.409 54.5386C106.271 52.868 107.445 51.5657 108.933 50.6092L108.943 50.6025L108.954 50.5955C110.441 49.5864 112.007 49.096 113.672 49.096C115.224 49.096 116.422 49.4428 117.331 50.0653L117.346 50.0757L117.362 50.0855C118.194 50.6111 118.568 51.2933 118.568 52.232C118.568 52.973 118.313 53.6963 117.731 54.4233L117.718 54.4397L117.706 54.4566C117.112 55.2657 116.107 56.3617 114.654 57.7566C112.334 59.9577 110.519 62.0379 109.232 63.9973C107.865 66.0182 107.216 68.5128 107.216 71.416ZM108.233 93.5265C110.615 95.7801 113.66 96.88 117.28 96.88C120.9 96.88 123.945 95.7801 126.327 93.5265C128.693 91.2882 129.896 88.5339 129.896 85.32C129.896 82.0548 128.698 79.3178 126.311 77.1866C123.928 74.9998 120.889 73.936 117.28 73.936C113.671 73.936 110.632 74.9998 108.249 77.1867C105.862 79.3178 104.664 82.0548 104.664 85.32C104.664 88.5339 105.867 91.2882 108.233 93.5265Z" fill="#FFCC00" stroke="black" stroke-width="2"/>
</svg>
