<svg width="166" height="157" viewBox="0 0 166 157" fill="none" xmlns="http://www.w3.org/2000/svg">
<path fill-rule="evenodd" clip-rule="evenodd" d="M54.65 143.645L54.7107 143.584C67.0593 131.24 82.3989 117.258 101.051 116.134C117.308 118.46 134.422 113.371 146.927 100.865C168.016 79.7767 168.016 45.5858 146.927 24.4975C125.839 3.40918 91.6482 3.40918 70.5599 24.4975C58.105 36.9524 53.006 53.9778 55.2631 70.1749C54.208 88.9309 40.1371 104.343 27.7425 116.737C27.7573 116.747 27.7723 116.757 27.7875 116.767L27.4264 117.128L54.2965 143.999L54.65 143.645Z" fill="black"/>
<rect x="40.1543" y="97.3295" width="48" height="40" rx="7" transform="rotate(45 40.1543 97.3295)" fill="black"/>
<mask id="path-3-inside-1" fill="white">
<path fill-rule="evenodd" clip-rule="evenodd" d="M46.65 137.331L46.7107 137.271C59.0593 124.926 74.3989 110.945 93.0514 109.82C109.308 112.147 126.422 107.057 138.927 94.5513C160.016 73.463 160.016 39.2721 138.927 18.1838C117.839 -2.90455 83.6482 -2.90455 62.5599 18.1838C50.105 30.6387 45.006 47.6641 47.2631 63.8612C46.208 82.6172 32.1371 98.0292 19.7425 110.424C19.7573 110.434 19.7723 110.444 19.7875 110.454L19.4264 110.815L46.2965 137.685L46.65 137.331Z"/>
</mask>
<path fill-rule="evenodd" clip-rule="evenodd" d="M46.65 137.331L46.7107 137.271C59.0593 124.926 74.3989 110.945 93.0514 109.82C109.308 112.147 126.422 107.057 138.927 94.5513C160.016 73.463 160.016 39.2721 138.927 18.1838C117.839 -2.90455 83.6482 -2.90455 62.5599 18.1838C50.105 30.6387 45.006 47.6641 47.2631 63.8612C46.208 82.6172 32.1371 98.0292 19.7425 110.424C19.7573 110.434 19.7723 110.444 19.7875 110.454L19.4264 110.815L46.2965 137.685L46.65 137.331Z" fill="white"/>
<path d="M46.7107 137.271L44.5898 135.149L44.5896 135.149L46.7107 137.271ZM46.65 137.331L44.5289 135.21L44.5287 135.21L46.65 137.331ZM93.0514 109.82L93.4764 106.85L93.1749 106.807L92.8709 106.826L93.0514 109.82ZM47.2631 63.8612L50.2583 64.0297L50.2748 63.7372L50.2344 63.4471L47.2631 63.8612ZM19.7425 110.424L17.6212 108.302L15.0521 110.872L18.0609 112.908L19.7425 110.424ZM19.7875 110.454L21.9088 112.575L24.5174 109.966L21.4317 107.944L19.7875 110.454ZM19.4264 110.815L17.3051 108.693L15.1838 110.815L17.3051 112.936L19.4264 110.815ZM46.2965 137.685L44.1751 139.806L46.2965 141.927L48.4178 139.806L46.2965 137.685ZM44.5896 135.149L44.5289 135.21L48.7712 139.453L48.8319 139.392L44.5896 135.149ZM92.8709 106.826C72.9293 108.028 56.8352 122.908 44.5898 135.149L48.8317 139.392C61.2834 126.945 75.8684 113.861 93.2319 112.815L92.8709 106.826ZM136.806 92.43C124.996 104.24 108.838 109.049 93.4764 106.85L92.6264 112.79C109.778 115.245 127.847 109.875 141.049 96.6726L136.806 92.43ZM136.806 20.3051C156.723 40.2218 156.723 72.5132 136.806 92.43L141.049 96.6726C163.309 74.4127 163.309 38.3223 141.049 16.0624L136.806 20.3051ZM64.6812 20.3051C84.598 0.388348 116.889 0.388348 136.806 20.3051L141.049 16.0624C118.789 -6.19744 82.6985 -6.19744 60.4386 16.0624L64.6812 20.3051ZM50.2344 63.4471C48.1016 48.1415 52.9196 32.0667 64.6812 20.3051L60.4386 16.0624C47.2904 29.2107 41.9105 47.1866 44.2918 64.2752L50.2344 63.4471ZM44.2678 63.6927C43.2858 81.1501 30.122 95.8016 17.6212 108.302L21.8638 112.545C34.1521 100.257 49.1302 84.0843 50.2583 64.0297L44.2678 63.6927ZM18.0609 112.908C18.087 112.926 18.1144 112.944 18.1432 112.963L21.4317 107.944C21.4302 107.943 21.4277 107.942 21.4241 107.939L18.0609 112.908ZM21.5477 112.936L21.9088 112.575L17.6661 108.332L17.3051 108.693L21.5477 112.936ZM48.4178 135.563L21.5477 108.693L17.3051 112.936L44.1751 139.806L48.4178 135.563ZM44.5287 135.21L44.1751 135.564L48.4178 139.806L48.7714 139.453L44.5287 135.21Z" fill="black" mask="url(#path-3-inside-1)"/>
<path d="M38.1647 118.239L80.9447 75.4594L106.754 65.2064L89.0764 58.8424L111.704 44.7003" stroke="black" stroke-width="3" stroke-linecap="round" stroke-linejoin="round"/>
<rect x="32.1543" y="93.1371" width="45" height="37" rx="5.5" transform="rotate(45 32.1543 93.1371)" fill="white" stroke="black" stroke-width="3"/>
<path d="M24.3762 110.108L44.657 134.86" stroke="black" stroke-width="3" stroke-linecap="round"/>
<path d="M30.033 104.451L50.3139 129.203" stroke="black" stroke-width="3" stroke-linecap="round"/>
<path d="M18.7193 115.765L39.0001 140.517" stroke="black" stroke-width="3" stroke-linecap="round"/>
</svg>
